#!OML:ASF F:\VICON\USERDATA\INSTALL\rory3\rory3.ASF
:FULLY-SPECIFIED
:DEGREES
353
root 1.52879 19.056 1.8778 2.54996 1.66434 0.501407
lowerback 5.30691 0.520962 -2.10207
upperback -0.794473 0.510042 -1.20618
thorax -3.80502 0.285579 -0.108453
lowerneck -8.99427 -2.57587 -7.02649
upperneck 5.01362 -3.23174 8.66592
head 3.21467 -1.37696 3.60636
rclavicle -6.08778e-015 -1.59028e-014
rhumerus -31.5576 0.12602 -82.8319
rradius 24.6028
rwrist 9.43344
rhand -27.0758 -3.75817
rfingers 7.12502
rthumb -0.493303 -33.7373
lclavicle -6.08778e-015 -1.59028e-014
lhumerus -31.8128 14.8269 77.2316
lradius 24.7966
lwrist 1.01243
lhand -22.2842 23.8982
lfingers 7.12502
lthumb 4.13433 53.8379
rfemur -3.51249 20.7719 17.8424
rtibia 12.4557
rfoot -12.0893 -22.6706
rtoes 1.37391
lfemur -3.55808 -4.57982 -21.4899
ltibia 12.0768
lfoot -11.5668 17.891
ltoes 3.18756
354
root 1.52009 19.0567 1.87516 2.46385 1.62787 0.502461
lowerback 5.31506 0.538607 -2.11044
upperback -0.783469 0.531614 -1.24323
thorax -3.79827 0.29597 -0.143838
lowerneck -9.08924 -2.58797 -7.06877
upperneck 5.14814 -3.25507 8.79314
head 3.2756 -1.38074 3.65071
rclavicle 9.0944e-015 -1.66979e-014
rhumerus -31.4529 0.0543487 -82.8792
rradius 24.6419
rwrist 9.65634
rhand -27.1225 -3.8551
rfingers 7.12502
rthumb -0.538367 -33.8342
lclavicle 9.0944e-015 -1.66979e-014
lhumerus -31.6157 14.7002 77.4458
lradius 25.1135
lwrist 1.09355
lhand -21.7434 24.0568
lfingers 7.12502
lthumb 4.6565 53.9857
rfemur -3.3833 20.8386 17.8896
rtibia 12.3633
rfoot -12.0292 -22.6321
rtoes 1.42134
lfemur -3.43831 -4.84084 -21.4898
ltibia 12.0318
lfoot -11.599 18.1882
ltoes 3.16254
355
root 1.51169 19.0573 1.8744 2.38561 1.53675 0.465251
lowerback 5.27462 0.56811 -2.06808
upperback -0.768725 0.574165 -1.27546
thorax -3.75999 0.315544 -0.203893
lowerneck -8.96135 -2.60385 -7.11243
upperneck 5.02341 -3.28017 8.91124
head 3.22223 -1.39302 3.69374
rclavicle -8.10048e-015 -9.14409e-015
rhumerus -31.3884 -0.037556 -82.9029
rradius 24.7277
rwrist 9.93615
rhand -26.9998 -4.05706
rfingers 7.12502
rthumb -0.419902 -34.0364
lclavicle -8.10048e-015 -9.14409e-015
lhumerus -31.3303 14.4988 77.6812
lradius 25.345
lwrist 1.08845
lhand -21.3969 24.9771
lfingers 7.12502
lthumb 4.99109 54.8983
rfemur -3.28249 20.8133 17.9622
rtibia 12.2537
rfoot -11.936 -22.4993
rtoes 1.31343
lfemur -3.33424 -4.99436 -21.454
ltibia 12.041
lfoot -11.7027 18.4469
ltoes 3.35799
356
root 1.50064 19.0561 1.86898 2.33951 1.40337 0.394649
lowerback 5.25499 0.618438 -2.06769
upperback -0.752281 0.642398 -1.27165
thorax -3.73275 0.349223 -0.20558
lowerneck -8.86193 -2.63027 -7.14932
upperneck 4.89094 -3.31543 8.9954
head 3.17136 -1.41113 3.72436
rclavicle 6.80837e-015 -2.78299e-015
rhumerus -31.2148 -0.239101 -82.8732
rradius 24.7182
rwrist 10.2074
rhand -26.9934 -3.9052
rfingers 7.12502
rthumb -0.413748 -33.8845
lclavicle 6.80837e-015 -2.78299e-015
lhumerus -31.038 14.5127 77.8185
lradius 25.4165
lwrist 0.595988
lhand -21.3642 25.5519
lfingers 7.12502
lthumb 5.0227 55.4723
rfemur -3.26399 20.7955 18.0558
rtibia 12.1709
rfoot -11.8482 -22.3191
rtoes 1.39785
lfemur -3.29181 -5.11363 -21.3724
ltibia 12.0601
lfoot -11.8189 18.7273
ltoes 3.60263
357
root 1.49294 19.0548 1.86463 2.27809 1.29114 0.396697
lowerback 5.25791 0.671337 -2.09421
upperback -0.729695 0.710418 -1.30365
thorax -3.71181 0.382993 -0.229293
lowerneck -8.86313 -2.67008 -7.19608
upperneck 4.8847 -3.37033 9.09292
head 3.17694 -1.43523 3.75895
rclavicle -7.05686e-015 -1.70955e-014
rhumerus -30.9905 -0.469108 -82.8502
rradius 24.6256
rwrist 10.5117
rhand -26.8812 -3.62527
rfingers 7.12502
rthumb -0.305368 -33.6048
lclavicle -7.05686e-015 -1.70955e-014
lhumerus -30.8503 14.3955 77.9967
lradius 25.5163
lwrist 0.439622
lhand -22.0676 24.796
lfingers 7.12502
lthumb 4.34345 54.7315
rfemur -3.23312 20.7707 18.0681
rtibia 12.1414
rfoot -11.7445 -22.1436
rtoes 1.63576
lfemur -3.24816 -5.32423 -21.3831
ltibia 12.1187
lfoot -11.9564 18.9936
ltoes 3.68065
358
root 1.48396 19.0536 1.86079 2.23677 1.2105 0.478325
lowerback 5.28398 0.699209 -2.2451
upperback -0.743107 0.735343 -1.3345
thorax -3.74241 0.398454 -0.179198
lowerneck -8.91864 -2.68598 -7.14105
upperneck 4.97072 -3.39595 9.0337
head 3.21188 -1.44723 3.72965
rclavicle -3.45388e-015 -1.59028e-015
rhumerus -30.8374 -0.684896 -82.8246
rradius 24.5448
rwrist 10.9349
rhand -26.6946 -3.4739
rfingers 7.12502
rthumb -0.125114 -33.4536
lclavicle -3.45388e-015 -1.59028e-015
lhumerus -30.7553 13.8444 78.3981
lradius 25.7946
lwrist 1.43491
lhand -22.8068 24.0898
lfingers 7.12502
lthumb 3.62963 54.0386
rfemur -3.26409 20.7292 17.9922
rtibia 12.2023
rfoot -11.6968 -21.9794
rtoes 2.06307
lfemur -3.23616 -5.39762 -21.4667
ltibia 12.2035
lfoot -12.0588 19.123
ltoes 3.53649
